<svg xmlns="http://www.w3.org/2000/svg" width="350" height="350" viewBox="0 0 350 350" version="1.1"><path d="M 100 122.047 C 130.440 123.120, 271.070 125.309, 281.668 124.875 L 290.836 124.500 291.639 123.696 L 292.442 122.891 290.971 121.961 L 289.500 121.031 184.500 121.178 L 79.500 121.325 100 122.047 M 184.300 153 L 184.300 158.500 184.716 155.750 C 184.945 154.238, 184.945 151.762, 184.716 150.250 L 184.300 147.500 184.300 153 M 169.177 170.685 L 169 189.870 169.975 192.435 L 170.950 195 175.675 195 L 180.400 195 179.450 194.121 C 178.928 193.637, 176.813 192.702, 174.750 192.043 L 171 190.845 170.871 186.172 C 170.800 183.603, 170.430 174.750, 170.048 166.500 L 169.354 151.500 169.177 170.685 M 165.310 162.500 L 165.320 168.500 165.725 165.232 C 165.947 163.435, 165.943 160.735, 165.715 159.232 L 165.300 156.500 165.310 162.500" stroke="none" fill="#e6e6e6" fill-rule="evenodd"/><path d="" stroke="none" fill="#000000" fill-rule="evenodd"/><path d="M 282.750 113.723 C 284.538 113.945, 287.462 113.945, 289.250 113.723 L 292.500 113.320 286 113.320 L 279.500 113.320 282.750 113.723 M 168.750 127.740 C 172.188 127.936, 177.813 127.936, 181.250 127.740 L 187.500 127.385 175 127.385 L 162.500 127.385 168.750 127.740 M 194.284 144 C 194.255 153.075, 194.446 159.600, 194.708 158.500 L 195.185 156.500 199.198 152.354 C 201.406 150.074, 203.164 147.936, 203.106 147.604 C 203.048 147.272, 203 146.550, 203 146 L 203 145 204.559 145 L 206.118 145 205.399 146.250 L 204.679 147.500 205.590 146.667 C 206.090 146.208, 206.556 145.421, 206.625 144.917 C 206.694 144.412, 206.806 143.523, 206.875 142.941 L 207 141.882 207.833 142.397 L 208.666 142.912 212.333 140.420 C 214.350 139.049, 216 138.126, 216 138.369 C 216 138.612, 218.363 138.195, 221.250 137.444 C 224.137 136.692, 228.368 135.947, 230.650 135.788 L 234.800 135.500 233.897 133.811 L 232.995 132.121 234.149 131.408 L 235.303 130.695 233.460 129.347 L 231.618 128 229.559 128.090 L 227.500 128.180 230.786 129.128 L 234.071 130.076 233.557 130.907 L 233.043 131.739 228.772 130.913 C 226.422 130.459, 221.575 130.091, 218 130.096 L 211.500 130.105 204.140 131.422 L 196.780 132.739 195.962 134.062 L 195.144 135.386 194.740 131.443 L 194.336 127.500 194.284 144 M 122.954 130.720 L 115.407 132.244 115.290 133.872 L 115.173 135.500 118.836 135.643 C 131.280 136.127, 155 148.325, 155 154.240 L 155 155.310 152.750 153.412 L 150.500 151.514 152.662 154.007 L 154.825 156.500 155.253 159 C 155.488 160.375, 155.673 154.075, 155.663 145 L 155.645 128.500 154.995 135 L 154.345 141.500 154.015 137.500 C 153.833 135.300, 153.723 132.825, 153.769 132 L 153.852 130.500 152.577 132.234 L 151.302 133.969 150.773 133.439 C 150.010 132.677, 134.192 128.982, 132.187 129.098 C 131.259 129.152, 127.104 129.881, 122.954 130.720 M 166.438 160.500 L 166.437 187.500 166.747 174.310 C 166.918 167.055, 166.918 154.905, 166.748 147.310 L 166.439 133.500 166.438 160.500 M 183.438 160.500 L 183.437 187.500 183.747 174.310 C 183.918 167.055, 183.918 154.905, 183.748 147.310 L 183.439 133.500 183.438 160.500 M 110.500 143 L 111.118 144 114.500 144 L 117.882 144 118.500 143 L 119.118 142 114.500 142 L 109.882 142 110.500 143 M 232 143 L 232 144 235.250 143.985 L 238.500 143.969 240 143 L 241.500 142.031 236.750 142.015 L 232 142 232 143 M 197.673 150.550 L 194.846 153.037 195.187 154.060 L 195.528 155.083 198.960 151.541 L 202.392 148 201.446 148.032 C 200.926 148.049, 199.228 149.182, 197.673 150.550 M 60.653 186.770 L 60.050 190.540 60.939 193.520 L 61.828 196.500 61.914 189.750 C 62.010 182.200, 61.555 181.125, 60.653 186.770 M 288.182 190 L 288.207 196.500 289.196 192.778 L 290.185 189.056 289.172 186.278 L 288.158 183.500 288.182 190 M 162 188.986 L 162 190.118 162.958 189.526 L 163.916 188.934 162.464 191.717 L 161.012 194.500 160.991 197.500 L 160.969 200.500 159.890 199 L 158.811 197.500 159.406 199.332 C 159.733 200.339, 160 202.927, 160 205.082 L 160 209 166.941 209 L 173.882 209 174.500 210 L 175.118 211 179.309 210.858 L 183.500 210.716 179.500 210 L 175.500 209.284 182 209.023 C 185.575 208.880, 188.838 208.816, 189.250 208.882 L 190 209 190 205.082 C 190 202.927, 190.267 200.339, 190.594 199.332 L 191.189 197.500 190.207 198.876 L 189.226 200.253 188.515 194.126 L 187.804 188 185.902 188 L 184 188 184 194.427 L 184 200.853 175.370 201.177 L 166.740 201.500 166.240 200.191 C 165.965 199.471, 165.686 196.552, 165.620 193.704 L 165.500 188.526 163.750 188.190 L 162 187.853 162 188.986 M 72 222.160 C 72 222.477, 74.025 224.762, 76.500 227.237 C 78.975 229.712, 81 231.440, 81 231.077 C 81 230.714, 78.975 228.429, 76.500 226 C 74.025 223.571, 72 221.843, 72 222.160 M 273.021 226.479 C 270.603 228.943, 268.822 231.080, 269.062 231.229 C 269.303 231.378, 271.645 229.363, 274.266 226.750 C 276.888 224.137, 278.669 222, 278.224 222 C 277.780 222, 275.438 224.016, 273.021 226.479" stroke="none" fill="#565656" fill-rule="evenodd"/><path d="" stroke="none" fill="#000000" fill-rule="evenodd"/><path d="M 63 120.785 L 64.500 121.509 177 120.969 L 289.500 120.430 175.500 120.245 L 61.500 120.061 63 120.785 M 96.750 122.737 C 99.638 122.939, 104.362 122.939, 107.250 122.737 L 112.500 122.370 102 122.370 L 91.500 122.370 96.750 122.737 M 142.250 123.742 C 145.963 123.934, 152.037 123.934, 155.750 123.742 L 162.500 123.392 149 123.392 L 135.500 123.392 142.250 123.742 M 196.750 124.745 C 201.837 124.927, 210.162 124.927, 215.250 124.745 L 224.500 124.415 206 124.415 L 187.500 124.415 196.750 124.745 M 169.750 129.689 C 166.337 130.581, 170.564 135, 174.830 135 L 176.730 135 179.510 132.814 L 182.289 130.628 180.394 129.884 C 178.323 129.071, 172.522 128.965, 169.750 129.689 M 169.642 142.750 L 169.124 145.500 169.901 162 L 170.678 178.500 170.839 159.250 C 170.995 140.630, 170.729 136.969, 169.642 142.750 M 102.776 147.479 C 97.222 149.008, 90.054 153.013, 84.618 157.624 L 80.736 160.918 77.503 166.285 C 73.734 172.541, 72.292 176.562, 71.026 184.340 L 70.108 189.981 71.082 196.240 L 72.055 202.500 75.128 208.827 L 78.201 215.153 83.850 220.633 L 89.500 226.112 95.723 229.180 L 101.946 232.248 110.723 232.747 L 119.500 233.246 125.830 231.623 L 132.161 230 137.582 226.402 L 143.003 222.804 147.141 218.152 L 151.280 213.500 153.739 208.193 L 156.199 202.886 157.303 196.443 L 158.406 190 157.290 183.485 L 156.174 176.969 153.128 170.461 L 150.083 163.952 144.791 158.695 L 139.500 153.437 133.909 150.723 L 128.318 148.009 123.023 147.004 C 120.110 146.452, 115.426 146.040, 112.614 146.089 L 107.500 146.179 102.776 147.479 M 224.637 147.442 L 219.774 148.748 218.902 150.124 C 218.423 150.881, 218.024 151.153, 218.015 150.730 L 218 149.959 214.003 151.999 L 210.006 154.038 204.706 159.338 L 199.406 164.638 196.571 170.569 L 193.735 176.500 192.668 183.753 L 191.601 191.005 192.873 197.253 L 194.145 203.500 196.823 209 L 199.500 214.500 206.050 221.060 L 212.600 227.620 219.857 230.310 L 227.114 233 235.307 232.989 L 243.500 232.978 248.119 231.577 C 250.659 230.806, 254.695 229.176, 257.089 227.955 L 261.441 225.734 267.126 219.870 L 272.811 214.006 276.010 206.322 L 279.209 198.637 278.775 188.069 L 278.341 177.500 275.235 171 L 272.128 164.500 267.937 160.156 C 265.631 157.767, 261.440 154.342, 258.623 152.545 L 253.500 149.278 246.936 147.639 L 240.372 146 234.936 146.067 L 229.500 146.135 224.637 147.442 M 102.391 152.420 L 98.282 153.706 92.656 157.440 L 87.030 161.175 83.999 165.002 C 82.332 167.106, 79.738 171.454, 78.234 174.664 L 75.500 180.500 75.575 189.500 L 75.650 198.500 77.989 204.496 L 80.328 210.492 85.818 216.248 L 91.308 222.003 96.404 224.478 L 101.500 226.952 108.638 228.160 L 115.775 229.369 121.292 228.134 L 126.810 226.899 131.905 224.360 L 137.001 221.821 141.565 217.385 L 146.129 212.950 149.314 206.225 L 152.500 199.500 152.500 189.500 L 152.500 179.500 149.782 173.700 L 147.065 167.900 141.863 162.450 L 136.662 157 135.331 157 C 134.599 157, 134 156.633, 134 156.185 L 134 155.370 127.750 153.175 L 121.500 150.980 114 151.057 L 106.500 151.134 102.391 152.420 M 225.500 151.876 C 220.959 153.081, 214.468 156.650, 210.531 160.107 L 207.006 163.201 207.658 164.255 L 208.309 165.309 207.237 164.646 L 206.164 163.984 202.659 169.588 L 199.153 175.192 197.952 180.201 L 196.750 185.209 197.220 192.527 L 197.690 199.846 200.345 205.272 C 201.805 208.257, 203 210.998, 203 211.363 C 203 211.728, 205.196 214.211, 207.880 216.881 L 212.761 221.736 218.130 224.359 L 223.500 226.982 229.438 228.076 L 235.375 229.171 239.938 228.511 C 242.447 228.148, 246.664 227.097, 249.309 226.176 L 254.118 224.500 258.785 220.976 L 263.452 217.452 267.216 212.476 L 270.979 207.500 272.523 203 C 273.372 200.525, 274.342 195.905, 274.678 192.734 L 275.288 186.968 273.494 180.234 L 271.699 173.500 268.281 168.294 C 263.933 161.670, 259.940 158.184, 252.573 154.579 L 246.699 151.706 237.599 151.393 L 228.500 151.079 225.500 151.876" stroke="none" fill="#d4d4d4" fill-rule="evenodd"/><path d="M 60.836 113.706 L 57.172 114.111 56.562 115.698 C 55.718 117.898, 56.471 118.354, 58.849 117.081 L 60.869 116 175.734 116 L 290.600 116 291.783 117.183 L 292.967 118.367 293.575 117.759 L 294.183 117.151 293.558 115.181 L 292.933 113.212 178.716 113.257 C 115.897 113.281, 62.851 113.484, 60.836 113.706 M 60 127.100 L 55.500 127.700 85.180 127.850 L 114.861 128 115.311 130.250 L 115.762 132.500 115.686 129.500 L 115.609 126.500 90.055 126.500 C 76 126.500, 62.475 126.770, 60 127.100 M 155.642 127.500 L 155.255 128.500 159.032 128.500 L 162.809 128.500 162.398 127.835 C 162.172 127.470, 162.514 126.995, 163.157 126.781 C 163.800 126.567, 162.460 126.416, 160.178 126.446 L 156.029 126.500 155.642 127.500 M 180.500 127.012 L 193.500 127.805 194.210 127.142 L 194.920 126.480 181.210 126.349 L 167.500 126.218 180.500 127.012 M 261.583 127 L 234.665 127.500 234.408 128.775 L 234.150 130.050 234.658 129.025 L 235.167 128 264.083 128 L 293 128 293 127.250 L 293 126.500 290.750 126.500 C 289.512 126.500, 276.387 126.725, 261.583 127 M 167.181 141.500 L 167.360 147.500 167.735 142.750 L 168.110 138 169.311 138 C 169.972 138, 171.898 138.397, 173.591 138.883 L 176.668 139.765 178.409 138.791 L 180.150 137.817 180.746 138.412 C 181.073 138.740, 181.642 145.644, 182.009 153.754 L 182.677 168.500 182.838 151.964 L 183 135.429 181.073 135.429 L 179.147 135.429 179.567 136.108 L 179.986 136.787 177.493 137.412 L 175 138.038 172.405 137.387 L 169.810 136.735 171.058 135.964 L 172.307 135.192 169.654 135.346 L 167.001 135.500 167.181 141.500 M 104 138.047 L 99.500 139 98.198 138.512 L 96.896 138.023 97.604 139.169 L 98.313 140.315 96.155 139.751 L 93.997 139.187 94.456 139.928 L 94.914 140.670 91.388 142.352 L 87.863 144.033 86.777 143.362 L 85.691 142.691 86.405 143.845 L 87.118 145 85.809 145.118 C 85.089 145.184, 84.129 145.172, 83.676 145.094 L 82.851 144.950 83.454 145.925 L 84.056 146.900 82.159 147.915 L 80.263 148.930 79.471 148.215 L 78.679 147.500 79.304 148.597 L 79.929 149.694 77.145 152.361 L 74.361 155.028 73.520 154.264 L 72.679 153.500 73.257 154.521 L 73.835 155.542 70.074 161.261 L 66.314 166.980 65.496 166.240 L 64.679 165.500 65.404 166.759 L 66.129 168.018 65.493 170.023 L 64.856 172.029 64.021 171.513 L 63.187 170.997 63.751 173.155 L 64.315 175.313 63.408 174.754 L 62.500 174.195 62.157 186.022 L 61.814 197.848 63.486 203.674 L 65.159 209.500 68.551 215.612 L 71.943 221.723 71.222 222.522 L 70.500 223.321 71.582 222.705 L 72.664 222.090 77.356 226.854 C 79.937 229.474, 81.813 231.854, 81.524 232.142 C 81.236 232.431, 81.675 232.667, 82.500 232.667 L 84 232.667 84 231.726 L 84 230.786 85.552 231.382 L 87.104 231.977 86.493 230.989 L 85.882 230 87.063 230 L 88.245 230 87.207 228.750 C 86.637 228.063, 86.169 227.125, 86.168 226.667 C 86.167 226.208, 85.832 225.533, 85.423 225.167 L 84.679 224.500 85.399 225.750 L 86.118 227 85.262 227 C 84.210 227, 77 219.712, 77 218.649 L 77 217.882 78.250 218.601 L 79.500 219.321 78.667 218.410 C 78.208 217.910, 77.308 217.489, 76.667 217.476 L 75.500 217.452 75.637 215.737 L 75.774 214.022 74.925 214.546 L 74.077 215.071 72.130 211.255 C 71.060 209.157, 69.410 204.778, 68.464 201.525 L 66.745 195.610 67.282 187.055 L 67.819 178.500 69.007 175.251 L 70.195 172.002 71.004 172.503 L 71.813 173.003 71.344 171.208 L 70.875 169.413 74.249 164.457 L 77.623 159.500 78.670 159.703 L 79.716 159.905 82.608 156.703 L 85.500 153.500 82 156.494 L 78.500 159.487 82.453 155.244 C 84.627 152.910, 86.791 151, 87.262 151 L 88.118 151 87.405 152.155 L 86.691 153.309 87.862 152.585 L 89.033 151.862 88.488 150.981 L 87.944 150.100 89.993 149.004 L 92.041 147.908 93.045 148.528 L 94.050 149.149 93.775 147.911 L 93.500 146.673 99.500 144.712 L 105.500 142.751 114 142.687 L 122.500 142.623 128.095 144.337 L 133.690 146.052 138.397 149.037 L 143.104 152.022 142.398 153.166 L 141.691 154.309 142.932 153.542 L 144.173 152.775 147.586 156.084 C 149.464 157.903, 151 159.809, 151 160.319 L 151 161.245 149.250 159.872 L 147.500 158.500 148.863 160.239 L 150.227 161.978 151.045 161.472 L 151.863 160.967 153.432 163.206 L 155 165.445 155 160.943 L 155 156.442 151.250 152.562 C 149.188 150.428, 145.199 147.204, 142.387 145.397 L 137.273 142.113 130.887 139.945 L 124.500 137.777 116.500 137.435 L 108.500 137.093 104 138.047 M 223.558 138.540 C 220.290 139.366, 215.161 141.242, 212.160 142.710 L 206.704 145.379 200.852 150.797 L 195 156.215 195 160.830 L 195 165.445 196.649 162.973 C 199.024 159.412, 205.246 153, 206.325 153 L 207.245 153 205.872 154.750 L 204.500 156.500 206.239 155.137 L 207.978 153.773 207.457 152.931 L 206.936 152.088 209.424 150.458 L 211.912 148.828 212.981 149.488 L 214.050 150.149 213.775 148.824 L 213.500 147.500 215.700 147.574 L 217.901 147.648 217.443 146.907 L 216.984 146.166 221.742 144.638 C 224.359 143.798, 229.068 142.811, 232.207 142.445 L 237.915 141.780 245.207 143.426 L 252.500 145.072 257 147.365 L 261.500 149.658 261.500 150.746 C 261.500 151.344, 261.910 152.208, 262.410 152.667 L 263.321 153.500 262.601 152.250 L 261.882 151 262.786 151 C 263.283 151, 264.505 151.900, 265.500 153 L 267.310 155 266.481 155 C 266.025 155, 266.695 156.111, 267.971 157.469 L 270.291 159.938 271.065 159.460 L 271.840 158.981 273.957 161.673 L 276.074 164.364 275.573 165.670 L 275.072 166.976 276.229 166.738 L 277.386 166.500 279.848 172.500 L 282.309 178.500 282.770 186.033 L 283.232 193.566 282.096 199.033 C 281.471 202.040, 279.850 206.893, 278.494 209.818 L 276.029 215.136 275.127 214.579 L 274.226 214.022 274.363 215.737 L 274.500 217.452 273.300 217.476 C 272.640 217.489, 271.515 218.153, 270.800 218.952 L 269.500 220.404 271.250 219.079 L 273 217.755 273 218.681 C 273 219.191, 271.464 221.097, 269.586 222.916 L 266.173 226.225 264.836 225.452 L 263.500 224.679 264.252 225.509 L 265.004 226.338 263.347 228.169 L 261.690 230 262.904 230 L 264.118 230 263.558 230.907 L 262.997 231.813 265.155 231.249 L 267.313 230.685 266.700 231.676 L 266.088 232.667 267.544 232.667 C 268.345 232.667, 268.775 232.442, 268.501 232.167 C 268.226 231.893, 270.643 228.917, 273.872 225.555 L 279.743 219.441 282.283 214.428 C 283.680 211.670, 285.587 206.788, 286.520 203.578 L 288.217 197.741 287.577 187.120 C 287.225 181.279, 286.839 175.305, 286.719 173.845 L 286.500 171.191 285.866 171.583 L 285.232 171.975 284.020 169.048 L 282.807 166.121 283.558 164.906 L 284.309 163.691 283.205 164.373 L 282.100 165.056 281.004 163.007 L 279.908 160.959 280.608 159.825 L 281.309 158.691 280.205 159.373 L 279.100 160.056 277.881 157.778 C 277.211 156.525, 276.738 155.387, 276.831 155.250 C 276.924 155.113, 276.733 155.044, 276.407 155.098 C 276.080 155.151, 274.521 153.957, 272.942 152.445 L 270.071 149.694 270.696 148.597 L 271.321 147.500 270.529 148.215 L 269.737 148.930 267.841 147.915 L 265.944 146.900 266.546 145.925 L 267.149 144.950 266.324 145.094 C 265.871 145.172, 264.911 145.184, 264.191 145.118 L 262.882 145 263.493 144.011 L 264.104 143.023 262.388 143.681 L 260.672 144.340 261.490 143.015 L 262.309 141.691 261.229 142.358 L 260.150 143.025 257.606 141.866 L 255.063 140.708 255.533 139.947 L 256.003 139.187 253.845 139.751 L 251.687 140.315 252.248 139.408 L 252.809 138.500 250.155 138.334 C 248.695 138.242, 243.450 137.913, 238.500 137.603 L 229.500 137.040 223.558 138.540 M 77.015 189.309 L 77 195.118 78 194.500 L 79 193.882 78.985 190.191 L 78.969 186.500 78 185 L 77.031 183.500 77.015 189.309 M 271.607 185.582 C 271.273 186.452, 271 188.675, 271 190.523 L 271 193.882 272 194.500 L 273 195.118 273 189.559 C 273 183.826, 272.657 182.846, 271.607 185.582 M 182 197.912 L 182 199.158 174.592 198.829 L 167.184 198.500 167.651 199.250 L 168.118 200 175 200 L 181.882 200 182.541 198.933 L 183.200 197.867 182.600 197.267 L 182 196.667 182 197.912 M 54.478 198.964 L 55.284 200.269 52.142 199.808 L 49 199.346 49 200.118 L 49 200.890 53.750 201.195 L 58.500 201.500 58.812 205.278 L 59.124 209.055 53.312 211.629 C 50.115 213.044, 46.126 214.426, 44.446 214.700 L 41.393 215.198 39.506 211.013 L 37.619 206.828 38.652 205.189 L 39.686 203.550 44.093 202.373 L 48.500 201.196 46.832 201.098 C 45.914 201.044, 44.378 200.699, 43.418 200.330 L 41.672 199.660 42.491 200.986 L 43.311 202.312 39.745 201.733 C 35.054 200.972, 35.093 200.876, 36.593 209.501 L 37.891 216.965 39.832 221.353 C 40.900 223.767, 42.274 226.052, 42.887 226.430 L 44 227.118 44 225.976 L 44 224.833 45.241 225.247 L 46.482 225.661 47.870 224.273 L 49.258 222.885 50.681 223.431 L 52.104 223.977 51.537 223.061 L 50.971 222.144 52.977 221.507 L 54.982 220.871 56.146 221.590 L 57.309 222.309 56.490 220.985 L 55.672 219.660 57.388 220.319 L 59.104 220.977 58.558 220.095 L 58.013 219.212 62.006 217.614 L 66 216.016 66 214.567 C 66 213.770, 65.609 212.876, 65.130 212.580 C 64.652 212.285, 63.420 209.108, 62.393 205.521 L 60.525 199 58.844 199 C 57.920 199, 56.378 198.699, 55.418 198.330 L 53.672 197.660 54.478 198.964 M 291.855 198.706 L 289.209 199.113 288.049 203.719 C 287.411 206.253, 286.081 209.999, 285.094 212.042 L 283.298 215.759 291.137 218.995 L 298.975 222.231 298.498 223.003 L 298.022 223.774 299.261 223.730 C 299.942 223.705, 301.314 223.756, 302.309 223.842 L 304.118 224 303.507 224.989 L 302.896 225.977 304.448 225.382 L 306 224.786 306 225.952 L 306 227.118 307.113 226.430 C 307.726 226.052, 309.100 223.767, 310.168 221.353 L 312.109 216.965 313.407 209.501 C 314.878 201.044, 314.826 200.885, 310.882 201.674 L 308 202.250 308 201.188 L 308 200.126 304.345 200.719 L 300.689 201.312 301.345 200.251 L 302 199.190 297.847 199.747 L 293.694 200.304 294.406 199.152 C 294.798 198.518, 294.979 198.067, 294.809 198.150 C 294.639 198.232, 293.310 198.483, 291.855 198.706 M 291.750 201.558 C 291.337 201.984, 291 203.858, 291 205.722 L 291 209.111 296.313 211.543 C 299.235 212.881, 303.018 214.254, 304.720 214.594 L 307.816 215.213 309.018 212.967 C 309.679 211.732, 310.598 209.402, 311.061 207.789 L 311.901 204.857 308.376 203.384 L 304.851 201.911 298.675 201.347 L 292.500 200.783 291.750 201.558 M 110.500 226 L 109.882 227 114 227 L 118.118 227 117.500 226 L 116.882 225 114 225 L 111.118 225 110.500 226 M 231.500 226 L 230.882 227 235.500 227 L 240.118 227 239.500 226 L 238.882 225 235.500 225 L 232.118 225 231.500 226 M 108.282 235.616 C 108.621 235.954, 111.396 236.342, 114.449 236.478 L 120 236.724 120 235.862 L 120 235 113.833 235 L 107.667 235 108.282 235.616 M 230.406 235.739 L 231.145 236.478 236.072 236.580 L 241 236.682 241 235.841 L 241 235 235.333 235 L 229.667 235 230.406 235.739" stroke="none" fill="#898b87" fill-rule="evenodd"/><path d="M 116 129.500 C 116 132.460, 115.351 132.395, 125.140 130.411 L 132.980 128.823 141.600 130.855 C 146.341 131.973, 150.464 133.131, 150.761 133.428 L 151.302 133.969 152.725 132.234 C 153.508 131.281, 153.947 130.950, 153.701 131.500 C 153.455 132.050, 153.569 134.525, 153.955 137 L 154.657 141.500 155.078 134.248 L 155.500 126.995 135.750 126.998 L 116 127 116 129.500 M 194.826 130.969 L 195.204 134.939 196.516 133.627 L 197.828 132.315 206.922 131.011 L 216.015 129.708 223.655 130.354 L 231.294 130.999 232.480 131.984 L 233.667 132.968 233.667 131.470 L 233.667 129.971 230.583 128.989 L 227.500 128.007 230.750 128.478 L 234 128.950 234 127.975 L 234 127 214.224 127 L 194.447 127 194.826 130.969 M 112 135.990 L 107.500 136.700 114.201 136.850 C 117.886 136.932, 123.286 137.499, 126.201 138.110 L 131.500 139.219 138.321 142.771 L 145.143 146.323 150.071 150.754 L 155 155.185 155 154.178 C 155 152.691, 146.116 145.121, 141.500 142.675 C 132.955 138.146, 128.224 136.553, 121 135.769 L 116.500 135.280 112 135.990 M 230.500 135.712 C 229.400 135.892, 225.925 136.539, 222.778 137.150 C 219.631 137.761, 216.706 138.263, 216.278 138.265 C 215.850 138.266, 213.962 139.313, 212.083 140.590 L 208.666 142.912 207.938 142.462 L 207.210 142.011 206.636 143.506 L 206.063 145 204.531 145 L 203 145 203 145.808 C 203 146.253, 201.211 147.940, 199.024 149.558 L 195.047 152.500 195.024 153.843 L 195 155.185 200.210 150.501 L 205.420 145.817 210.960 143.021 C 214.007 141.483, 218.944 139.499, 221.932 138.612 L 227.363 137 234.848 137 C 238.965 137, 242.146 136.835, 241.917 136.633 C 241.249 136.045, 232.691 135.355, 230.500 135.712 M 131.083 146.331 C 132.816 147.707, 140.923 151.684, 140.456 150.929 C 139.837 149.928, 132.599 146, 131.373 146 C 130.985 146, 130.854 146.149, 131.083 146.331 M 86.341 151.868 C 81.873 155.104, 75.549 162.127, 73.389 166.250 C 71.141 170.542, 72.346 169.489, 75.822 164.125 C 78.908 159.363, 84.007 154.211, 89.009 150.802 C 90.379 149.869, 91.230 149.081, 90.900 149.052 C 90.570 149.024, 88.518 150.291, 86.341 151.868 M 203.650 156.169 L 197.500 162.338 204 156.470 C 207.575 153.243, 210.688 150.467, 210.917 150.301 C 211.146 150.135, 210.989 150, 210.567 150 C 210.146 150, 207.033 152.776, 203.650 156.169 M 151.349 162.327 C 153.357 164.981, 155 167.644, 155 168.243 L 155 169.333 155.614 168.719 L 156.228 168.105 154.146 164.737 C 153.001 162.884, 151.082 160.498, 149.881 159.434 L 147.697 157.500 151.349 162.327 M 67.300 189 L 67.300 194.500 67.716 191.750 C 67.945 190.238, 67.945 187.762, 67.716 186.250 L 67.300 183.500 67.300 189 M 282.300 190 L 282.300 195.500 282.716 192.750 C 282.945 191.238, 282.945 188.762, 282.716 187.250 L 282.300 184.500 282.300 190 M 166.094 187.500 C 165.603 189.153, 165.720 198.827, 166.248 200.211 L 166.740 201.500 175.370 201.177 L 184 200.853 183.804 193.677 L 183.608 186.500 183.258 193.250 L 182.909 200 175 200 L 167.091 200 166.742 193.250 C 166.549 189.537, 166.258 186.950, 166.094 187.500 M 160.597 192.500 C 160.231 195.250, 159.564 198.884, 159.113 200.575 L 158.295 203.649 158.749 206.742 L 159.203 209.834 161.351 210.355 L 163.500 210.877 169 210.063 L 174.500 209.250 167.106 209.125 L 159.713 209 160.382 201.802 L 161.051 194.605 162.457 191.786 L 163.864 188.966 163.017 189.489 L 162.171 190.012 161.717 188.756 L 161.263 187.500 160.597 192.500 M 188.537 192 C 188.792 194.475, 189.292 199.335, 189.649 202.800 L 190.299 209.100 189.399 208.931 C 188.905 208.839, 185.575 208.869, 182 208.998 L 175.500 209.234 181 210.153 L 186.500 211.073 188.618 210.118 L 190.736 209.163 191.229 206.582 L 191.722 204.001 190.891 200.251 C 190.433 198.188, 189.613 194.475, 189.067 192 L 188.075 187.500 188.537 192 M 62.052 202.712 C 62.023 203.379, 62.994 206.529, 64.208 209.712 C 65.423 212.896, 66.353 215.748, 66.275 216.051 C 66.197 216.354, 67.025 217.159, 68.115 217.840 L 70.097 219.077 68.409 216.502 C 67.481 215.085, 65.682 211.130, 64.413 207.713 C 63.143 204.296, 62.081 202.046, 62.052 202.712 M 286.115 206.105 C 285.407 208.522, 283.707 212.437, 282.339 214.805 L 279.851 219.110 281.859 217.856 C 282.964 217.166, 283.803 216.354, 283.725 216.051 C 283.647 215.748, 284.594 212.851, 285.829 209.612 C 287.064 206.374, 287.924 203.271, 287.739 202.717 L 287.403 201.710 286.115 206.105 M 35.653 211.500 L 36.234 216.500 37.136 217.469 L 38.037 218.437 37.354 214.969 C 36.979 213.061, 36.312 210.375, 35.872 209 L 35.073 206.500 35.653 211.500 M 75.823 216.500 C 78.820 220.690, 80.076 222.068, 84.022 225.500 L 87.471 228.500 81.553 222 C 73.662 213.333, 73.327 213.012, 75.823 216.500 M 268 222.289 C 264.975 225.176, 261.459 228.204, 260.187 229.019 L 257.874 230.500 260.687 230.623 L 263.500 230.747 262.308 230.310 L 261.117 229.872 267.808 223.469 C 271.489 219.948, 274.275 217.061, 274 217.053 C 273.725 217.046, 271.025 219.402, 268 222.289 M 38.206 221.750 C 38.846 223.262, 39.975 225.172, 40.715 225.994 L 42.060 227.489 40.280 223.255 C 39.301 220.926, 38.172 219.016, 37.771 219.010 L 37.043 219 38.206 221.750" stroke="none" fill="#4d4d4c" fill-rule="evenodd"/><path d="M 116 129.500 C 116 132.460, 115.351 132.395, 125.140 130.411 L 132.980 128.823 141.600 130.855 C 146.341 131.973, 150.464 133.131, 150.761 133.428 L 151.302 133.969 152.725 132.234 C 153.508 131.281, 153.947 130.950, 153.701 131.500 C 153.455 132.050, 153.569 134.525, 153.955 137 L 154.657 141.500 155.078 134.248 L 155.500 126.995 135.750 126.998 L 116 127 116 129.500 M 194.826 130.969 L 195.204 134.939 196.516 133.627 L 197.828 132.315 206.922 131.011 L 216.015 129.708 223.655 130.354 L 231.294 130.999 232.480 131.984 L 233.667 132.968 233.667 131.470 L 233.667 129.971 230.583 128.989 L 227.500 128.007 230.750 128.478 L 234 128.950 234 127.975 L 234 127 214.224 127 L 194.447 127 194.826 130.969 M 112 135.990 L 107.500 136.700 114.201 136.850 C 117.886 136.932, 123.286 137.499, 126.201 138.110 L 131.500 139.219 138.321 142.771 L 145.143 146.323 150.071 150.754 L 155 155.185 155 154.178 C 155 152.691, 146.116 145.121, 141.500 142.675 C 132.955 138.146, 128.224 136.553, 121 135.769 L 116.500 135.280 112 135.990 M 230.500 135.712 C 229.400 135.892, 225.925 136.539, 222.778 137.150 C 219.631 137.761, 216.706 138.263, 216.278 138.265 C 215.850 138.266, 213.962 139.313, 212.083 140.590 L 208.666 142.912 207.938 142.462 L 207.210 142.011 206.636 143.506 L 206.063 145 204.531 145 L 203 145 203 145.808 C 203 146.253, 201.211 147.940, 199.024 149.558 L 195.047 152.500 195.024 153.843 L 195 155.185 200.210 150.501 L 205.420 145.817 210.960 143.021 C 214.007 141.483, 218.944 139.499, 221.932 138.612 L 227.363 137 234.848 137 C 238.965 137, 242.146 136.835, 241.917 136.633 C 241.249 136.045, 232.691 135.355, 230.500 135.712 M 131.083 146.331 C 132.816 147.707, 140.923 151.684, 140.456 150.929 C 139.837 149.928, 132.599 146, 131.373 146 C 130.985 146, 130.854 146.149, 131.083 146.331 M 86.341 151.868 C 81.873 155.104, 75.549 162.127, 73.389 166.250 C 71.141 170.542, 72.346 169.489, 75.822 164.125 C 78.908 159.363, 84.007 154.211, 89.009 150.802 C 90.379 149.869, 91.230 149.081, 90.900 149.052 C 90.570 149.024, 88.518 150.291, 86.341 151.868 M 203.650 156.169 L 197.500 162.338 204 156.470 C 207.575 153.243, 210.688 150.467, 210.917 150.301 C 211.146 150.135, 210.989 150, 210.567 150 C 210.146 150, 207.033 152.776, 203.650 156.169 M 151.349 162.327 C 153.357 164.981, 155 167.644, 155 168.243 L 155 169.333 155.614 168.719 L 156.228 168.105 154.146 164.737 C 153.001 162.884, 151.082 160.498, 149.881 159.434 L 147.697 157.500 151.349 162.327 M 67.300 189 L 67.300 194.500 67.716 191.750 C 67.945 190.238, 67.945 187.762, 67.716 186.250 L 67.300 183.500 67.300 189 M 282.300 190 L 282.300 195.500 282.716 192.750 C 282.945 191.238, 282.945 188.762, 282.716 187.250 L 282.300 184.500 282.300 190 M 166.094 187.500 C 165.603 189.153, 165.720 198.827, 166.248 200.211 L 166.740 201.500 175.370 201.177 L 184 200.853 183.804 193.677 L 183.608 186.500 183.258 193.250 L 182.909 200 175 200 L 167.091 200 166.742 193.250 C 166.549 189.537, 166.258 186.950, 166.094 187.500 M 160.597 192.500 C 160.231 195.250, 159.564 198.884, 159.113 200.575 L 158.295 203.649 158.749 206.742 L 159.203 209.834 161.351 210.355 L 163.500 210.877 169 210.063 L 174.500 209.250 167.106 209.125 L 159.713 209 160.382 201.802 L 161.051 194.605 162.457 191.786 L 163.864 188.966 163.017 189.489 L 162.171 190.012 161.717 188.756 L 161.263 187.500 160.597 192.500 M 188.537 192 C 188.792 194.475, 189.292 199.335, 189.649 202.800 L 190.299 209.100 189.399 208.931 C 188.905 208.839, 185.575 208.869, 182 208.998 L 175.500 209.234 181 210.153 L 186.500 211.073 188.618 210.118 L 190.736 209.163 191.229 206.582 L 191.722 204.001 190.891 200.251 C 190.433 198.188, 189.613 194.475, 189.067 192 L 188.075 187.500 188.537 192 M 62.052 202.712 C 62.023 203.379, 62.994 206.529, 64.208 209.712 C 65.423 212.896, 66.353 215.748, 66.275 216.051 C 66.197 216.354, 67.025 217.159, 68.115 217.840 L 70.097 219.077 68.409 216.502 C 67.481 215.085, 65.682 211.130, 64.413 207.713 C 63.143 204.296, 62.081 202.046, 62.052 202.712 M 286.115 206.105 C 285.407 208.522, 283.707 212.437, 282.339 214.805 L 279.851 219.110 281.859 217.856 C 282.964 217.166, 283.803 216.354, 283.725 216.051 C 283.647 215.748, 284.594 212.851, 285.829 209.612 C 287.064 206.374, 287.924 203.271, 287.739 202.717 L 287.403 201.710 286.115 206.105 M 35.653 211.500 L 36.234 216.500 37.136 217.469 L 38.037 218.437 37.354 214.969 C 36.979 213.061, 36.312 210.375, 35.872 209 L 35.073 206.500 35.653 211.500 M 75.823 216.500 C 78.820 220.690, 80.076 222.068, 84.022 225.500 L 87.471 228.500 81.553 222 C 73.662 213.333, 73.327 213.012, 75.823 216.500 M 268 222.289 C 264.975 225.176, 261.459 228.204, 260.187 229.019 L 257.874 230.500 260.687 230.623 L 263.500 230.747 262.308 230.310 L 261.117 229.872 267.808 223.469 C 271.489 219.948, 274.275 217.061, 274 217.053 C 273.725 217.046, 271.025 219.402, 268 222.289 M 38.206 221.750 C 38.846 223.262, 39.975 225.172, 40.715 225.994 L 42.060 227.489 40.280 223.255 C 39.301 220.926, 38.172 219.016, 37.771 219.010 L 37.043 219 38.206 221.750" stroke="none" fill="#4d4d4c" fill-rule="evenodd"/><path d="M 58.750 117.080 L 57 118.099 57 122.436 L 57 126.772 174.750 126.636 L 292.500 126.500 292.815 122.680 L 293.129 118.860 291.942 117.430 L 290.755 116 175.628 116.030 L 60.500 116.061 58.750 117.080 M 63.500 121.053 L 65.500 121.971 124.500 123.340 L 183.500 124.709 237.750 124.883 L 292 125.057 292 123.564 L 292 122.070 290.066 121.035 L 288.131 120 174.816 120.068 L 61.500 120.135 63.500 121.053 M 163.333 129.456 L 163.333 130.912 164.105 130.435 L 164.877 129.958 165.689 131.409 C 166.136 132.207, 167.851 133.564, 169.501 134.424 L 172.500 135.988 175.715 135.994 L 178.930 136 182.321 133.023 L 185.712 130.046 186.409 130.742 L 187.106 131.439 186.446 129.720 L 185.786 128 174.560 128 L 163.333 128 163.333 129.456 M 169.750 129.689 C 166.337 130.581, 170.564 135, 174.830 135 L 176.730 135 179.510 132.814 L 182.289 130.628 180.394 129.884 C 178.323 129.071, 172.522 128.965, 169.750 129.689 M 167.824 143.163 C 167.583 146.098, 167.412 159.750, 167.443 173.500 L 167.500 198.500 174.410 198.799 L 181.321 199.099 182.134 197.799 L 182.947 196.500 182.503 172.500 C 182.258 159.300, 181.765 146.111, 181.407 143.190 L 180.755 137.880 179.127 138.559 C 177.061 139.421, 176.305 139.420, 171.881 138.543 L 168.262 137.827 167.824 143.163 M 169.709 143 L 168.918 146.500 169.209 170.500 L 169.500 194.500 175.250 194.800 L 181 195.100 181 194.180 L 181 193.260 176.500 192 C 174.025 191.307, 171.907 190.686, 171.793 190.620 C 171.680 190.554, 171.342 179.025, 171.043 165 L 170.500 139.500 169.709 143 M 101.351 145.838 L 95.202 147.662 90.199 150.872 L 85.197 154.082 80.533 159.068 L 75.870 164.053 72.979 170.277 L 70.088 176.500 69.062 182.983 L 68.036 189.466 69.065 195.907 L 70.094 202.347 72.210 207.424 C 74.782 213.595, 78.051 218.243, 83.434 223.382 L 87.500 227.264 95 230.882 L 102.500 234.500 113 234.477 C 123.596 234.454, 132.131 233.824, 131.439 233.116 C 131.233 232.904, 133.637 231.189, 136.782 229.304 C 139.927 227.420, 144.327 224.095, 146.561 221.916 L 150.622 217.955 151.471 218.727 L 152.321 219.500 151.695 218.402 L 151.070 217.304 154.450 210.902 L 157.831 204.500 159.055 198.200 L 160.280 191.900 159.695 185.634 L 159.110 179.368 156.986 173.691 L 154.862 168.014 150.277 161.915 L 145.692 155.816 140.506 152.373 C 137.654 150.479, 132.886 147.993, 129.910 146.848 L 124.500 144.766 116 144.390 L 107.500 144.014 101.351 145.838 M 224.105 145.583 C 221.137 146.381, 216.473 148.251, 213.740 149.738 L 208.770 152.443 203.518 157.612 L 198.266 162.781 195.197 168.921 L 192.129 175.061 190.941 180.781 L 189.753 186.500 190.298 193.008 L 190.843 199.516 192.539 204.008 C 193.472 206.479, 194.295 209.470, 194.367 210.655 L 194.500 212.809 195.141 212.413 C 195.493 212.195, 196.524 213.151, 197.432 214.537 L 199.083 217.056 198.387 218.183 L 197.691 219.309 198.687 218.693 L 199.683 218.078 203.092 221.595 C 207.750 226.401, 214.525 230.600, 221.487 232.996 L 227.313 235 235.688 235 L 244.063 235 250.082 232.972 L 256.101 230.945 257.205 231.627 L 258.309 232.309 257.687 231.302 L 257.064 230.295 261.900 227.162 L 266.736 224.028 270.154 219.764 C 276.725 211.567, 279.707 204.980, 281.027 195.748 L 281.849 189.996 280.920 183.248 L 279.991 176.500 276.493 169.355 L 272.995 162.211 267.041 156.699 L 261.088 151.187 255.682 148.629 C 252.709 147.223, 248.302 145.617, 245.888 145.061 L 241.500 144.049 235.500 144.090 L 229.500 144.132 224.105 145.583 M 102.776 147.479 C 97.222 149.008, 90.054 153.013, 84.618 157.624 L 80.736 160.918 77.503 166.285 C 73.734 172.541, 72.292 176.562, 71.026 184.340 L 70.108 189.981 71.082 196.240 L 72.055 202.500 75.128 208.827 L 78.201 215.153 83.850 220.633 L 89.500 226.112 95.723 229.180 L 101.946 232.248 110.723 232.747 L 119.500 233.246 125.830 231.623 L 132.161 230 137.582 226.402 L 143.003 222.804 147.141 218.152 L 151.280 213.500 153.739 208.193 L 156.199 202.886 157.303 196.443 L 158.406 190 157.290 183.485 L 156.174 176.969 153.128 170.461 L 150.083 163.952 144.791 158.695 L 139.500 153.437 133.909 150.723 L 128.318 148.009 123.023 147.004 C 120.110 146.452, 115.426 146.040, 112.614 146.089 L 107.500 146.179 102.776 147.479 M 225.754 147.084 C 223.694 147.570, 219.313 149.328, 216.019 150.990 L 210.030 154.014 204.718 159.326 L 199.406 164.638 196.571 170.569 L 193.735 176.500 192.668 183.753 L 191.601 191.005 192.873 197.253 L 194.145 203.500 196.823 209 L 199.500 214.500 206.050 221.060 L 212.600 227.620 219.857 230.310 L 227.114 233 235.307 232.989 L 243.500 232.978 248.119 231.577 C 250.659 230.806, 254.695 229.176, 257.089 227.955 L 261.441 225.734 267.126 219.870 L 272.811 214.006 276.010 206.322 L 279.209 198.637 278.775 188.069 L 278.341 177.500 275.235 171 L 272.128 164.500 267.937 160.156 C 265.631 157.767, 261.440 154.342, 258.623 152.545 L 253.500 149.278 246.936 147.639 L 240.372 146 234.936 146.100 C 231.946 146.156, 227.814 146.598, 225.754 147.084 M 102.391 152.420 L 98.282 153.706 92.656 157.440 L 87.030 161.175 83.999 165.002 C 82.332 167.106, 79.738 171.454, 78.234 174.664 L 75.500 180.500 75.575 189.500 L 75.650 198.500 77.989 204.496 L 80.328 210.492 85.818 216.248 L 91.308 222.003 96.404 224.478 L 101.500 226.952 108.638 228.160 L 115.775 229.369 121.292 228.134 L 126.810 226.899 131.905 224.360 L 137.001 221.821 141.565 217.385 L 146.129 212.950 149.314 206.225 L 152.500 199.500 152.500 189.500 L 152.500 179.500 149.782 173.700 L 147.065 167.900 141.863 162.450 L 136.662 157 135.331 157 C 134.599 157, 134 156.633, 134 156.185 L 134 155.370 127.750 153.175 L 121.500 150.980 114 151.057 L 106.500 151.134 102.391 152.420 M 225.438 151.875 C 223.754 152.313, 219.997 153.965, 217.090 155.548 L 211.803 158.425 207.447 163.270 L 203.091 168.116 200.295 173.808 L 197.500 179.500 197.500 189.500 L 197.500 199.500 200.250 205.100 C 201.762 208.179, 203 210.998, 203 211.363 C 203 211.728, 205.196 214.211, 207.880 216.881 L 212.761 221.736 218.130 224.359 L 223.500 226.982 229.438 228.076 L 235.375 229.171 239.938 228.511 C 242.447 228.148, 246.664 227.097, 249.309 226.176 L 254.118 224.500 258.785 220.976 L 263.452 217.452 267.216 212.476 L 270.979 207.500 272.523 203 C 273.372 200.525, 274.342 195.905, 274.678 192.734 L 275.288 186.968 273.494 180.234 L 271.699 173.500 268.281 168.294 C 263.933 161.670, 259.940 158.184, 252.573 154.579 L 246.699 151.706 237.599 151.393 L 228.500 151.079 225.438 151.875 M 102.372 154.780 C 99.552 155.786, 96.050 157.393, 94.590 158.349 L 91.936 160.088 92.484 160.975 L 93.033 161.862 91.862 162.585 L 90.691 163.309 91.405 162.155 L 92.118 161 91.364 161 C 90.295 161, 85 166.197, 85 167.246 L 85 168.118 86.155 167.405 L 87.309 166.691 86.585 167.862 L 85.862 169.033 85.040 168.525 L 84.219 168.017 82.533 170.589 L 80.848 173.162 81.413 174.633 L 81.977 176.104 81.036 175.522 L 80.095 174.941 78.548 180.152 L 77 185.363 77.012 189.432 C 77.043 200.243, 87.503 220, 93.196 220 L 94.118 220 93.405 218.845 L 92.691 217.691 93.862 218.415 L 95.033 219.138 94.443 220.092 L 93.854 221.045 99.677 223.684 L 105.500 226.323 114.097 226.376 L 122.694 226.429 129.597 222.964 L 136.500 219.500 136.225 218.176 L 135.950 216.851 137.038 217.524 L 138.126 218.196 140.063 216.443 C 141.128 215.479, 142 214.283, 142 213.786 L 142 212.882 140.750 213.601 L 139.500 214.321 140.333 213.410 C 140.792 212.910, 141.674 212.500, 142.294 212.500 L 143.420 212.500 145.719 209.088 L 148.019 205.677 149.509 200.657 L 151 195.637 150.923 189.068 L 150.846 182.500 149.596 178.500 L 148.345 174.500 147.098 174.775 L 145.851 175.050 146.472 174.045 L 147.092 173.041 145.996 170.993 L 144.900 168.944 143.961 169.524 L 143.023 170.104 143.552 168.726 L 144.080 167.349 139.049 162.643 L 134.018 157.937 129.259 155.825 L 124.500 153.713 116 153.331 L 107.500 152.949 102.372 154.780 M 223.500 154.843 L 218.500 156.719 218.738 157.823 L 218.976 158.928 217.573 158.390 L 216.170 157.851 212.234 161.408 L 208.297 164.964 207.565 164.232 L 206.833 163.500 207.136 164.500 C 207.302 165.050, 206.247 167.300, 204.791 169.500 L 202.144 173.500 200.445 178.785 L 198.747 184.070 199.195 191.805 L 199.643 199.540 202.241 205.216 L 204.840 210.893 209.469 215.522 L 214.099 220.151 220.799 223.308 L 227.500 226.465 235.500 226.403 L 243.500 226.341 249.475 224.014 L 255.449 221.688 260.762 216.663 L 266.075 211.639 265.549 210.267 L 265.023 208.896 265.969 209.481 L 266.915 210.065 268.530 206.942 L 270.145 203.819 269.584 202.358 L 269.023 200.896 269.907 201.442 L 270.790 201.989 271.477 200.244 C 271.854 199.285, 272.365 195.350, 272.612 191.500 L 273.060 184.500 270.772 178 L 268.483 171.500 267.359 171.711 L 266.235 171.922 266.368 170.211 L 266.500 168.500 265.286 168.738 L 264.072 168.976 264.562 167.700 L 265.051 166.423 262.107 163.603 L 259.163 160.782 258.056 161.465 L 256.950 162.149 257.225 160.824 L 257.500 159.500 251.596 156.551 L 245.693 153.601 237.096 153.284 L 228.500 152.967 223.500 154.843 M 44.093 202.351 L 39.686 203.550 38.652 205.189 L 37.619 206.828 39.506 211.013 L 41.393 215.198 44.446 214.700 C 46.126 214.426, 50.115 213.044, 53.312 211.629 L 59.124 209.055 58.812 205.278 L 58.500 201.500 53.500 201.326 L 48.500 201.152 44.093 202.351 M 291.750 201.558 C 291.337 201.984, 291 203.858, 291 205.722 L 291 209.111 296.313 211.543 C 299.235 212.881, 303.018 214.254, 304.720 214.594 L 307.816 215.213 309.018 212.967 C 309.679 211.732, 310.598 209.402, 311.061 207.789 L 311.901 204.857 308.376 203.384 L 304.851 201.911 298.675 201.347 L 292.500 200.783 291.750 201.558" stroke="none" fill="#adadac" fill-rule="evenodd"/></svg>